<svg width="1440" height="900" viewBox="0 0 1440 900" xmlns="http://www.w3.org/2000/svg">
  <path d="M0,128L48,144C96,160,192,192,288,192C384,192,480,160,576,149.3C672,139,768,149,864,176C960,203,1056,245,1152,245.3C1248,245,1344,203,1392,181.3L1440,160L1440,320L1392,320C1344,320,1248,320,1152,320C1056,320,960,320,864,320C768,320,672,320,576,320C480,320,384,320,288,320C192,320,96,320,48,320L0,320Z" fill="#26A69A" fill-opacity="0.2" transform="rotate(180 720 160)"/>
  <path d="M0,64L48,80C96,96,192,128,288,138.7C384,149,480,139,576,133.3C672,128,768,128,864,133.3C960,139,1056,149,1152,144C1248,139,1344,117,1392,106.7L1440,96L1440,320L1392,320C1344,320,1248,320,1152,320C1056,320,960,320,864,320C768,320,672,320,576,320C480,320,384,320,288,320C192,320,96,320,48,320L0,320Z" fill="#FF6F61" fill-opacity="0.2" transform="rotate(180 720 160)"/>
  <path d="M0,256L48,266.7C96,277,192,299,288,277.3C384,256,480,192,576,165.3C672,139,768,149,864,165.3C960,181,1056,203,1152,213.3C1248,224,1344,224,1392,224L1440,224L1440,320L1392,320C1344,320,1248,320,1152,320C1056,320,960,320,864,320C768,320,672,320,576,320C480,320,384,320,288,320C192,320,96,320,48,320L0,320Z" fill="#26A69A" fill-opacity="0.1" transform="rotate(180 720 160)"/>
</svg> 